<?xml version="1.0" encoding="UTF-8"?>
<svg xmlns="http://www.w3.org/2000/svg" viewBox="70 120 165 165">
  <path fill="#1a1a4e" d="M224.1,223.8c-4.1,12.5-11.4,23.6-20.9,32.3-.2.2-.5.2-.7,0l-122.7-79.2c-.2-.1-.3-.4-.2-.7,4.1-12.5,11.4-23.6,20.9-32.3.2-.2.5-.2.7,0l122.7,79.2c.2.1.3.4.2.7"/>
  <path fill="#1a1a4e" d="M196.2,260.7c.5-.2.8.4.4.7-12.6,9.2-28,14.6-44.8,14.6-41.2,0-74.7-32.7-76-73.5,0-.3.4-.5.6-.4l78.5,50.7c7.5,5.5,20,9.5,30.8,9.5s7.4-.5,10.4-1.6"/>
  <path fill="#1a1a4e" d="M227.9,197.5c0,.3-.4.5-.6.4l-78.5-50.7c-7.5-5.5-20-9.5-30.8-9.5s-7.4.5-10.4,1.6c-.5.2-.8-.5-.4-.7,12.6-9.1,28-14.5,44.7-14.5,41.2,0,74.7,32.7,76,73.5"/>
</svg>